<svg viewBox="0 0 700 700" xmlns="http://www.w3.org/2000/svg"><path d="m102.7 316.5c4.5-1.9 7.5-6.3 7.5-11.2v-44.9c0-6.7-5.5-11.8-12.2-11.8h-24c-3.8 0-7.3 1.6-9.6 4.5-2.3 3-3.1 6.7-2.2 10.4 5.2 20.5 14.9 38.2 27.3 50.5 3.4 3.4 8.7 4.4 13.2 2.5zm136.8 138.4c-2.2-.4-4.5-.8-6.9-1.1-51.5-7-129.9 11.7-180.2 69.5-7.1 8.1-19.3 8.9-27.5 1.9-8.1-7.1-9-19.4-1.9-27.5 60.1-69.1 151.2-91.2 214.8-82.5 8.2 1.1 15.9 2.7 23.1 4.8 3.3-9.6 5-19.8 5-30v-291.4c0-21 5.3-41.8 15.2-60.3l20.7-38.3h-247.9c-29.8 0-53.9 24.1-53.9 53.9v587c1.1-.7 2.3-1.3 3.5-1.7 48.1-18.1 133.6-84.8 234.7-182.9.4-.5.9-.9 1.3-1.4zm-109.8-368.7c61.2 0 110.7 63.8 110.7 142.5s-49.6 142.5-110.7 142.5c-61.2 0-110.7-63.8-110.7-142.5s49.5-142.5 110.7-142.5zm26.8 230.3c4.5 1.9 9.9.9 13.4-2.6 12.3-12.3 22.1-30 27.3-50.5.9-3.6.2-7.3-2.2-10.3-2.3-3-5.8-4.5-9.6-4.5h-24.1c-6.7 0-12.6 5.1-12.6 11.8v44.9c0 4.9 3.2 9.3 7.8 11.2zm4.8-106.5h24.1c3.8 0 7.3-2.1 9.6-5.1s3.1-7 2.2-10.7c-5.2-20.5-14.9-38.3-27.3-50.6-3.5-3.5-8.9-4.6-13.5-2.7-4.5 1.9-7.7 6.3-7.7 11.2v44.9c.1 6.8 5.9 13 12.6 13zm-87.3 0h24.1c6.7 0 12.2-6.2 12.2-13v-44.9c0-4.9-3-9.4-7.5-11.2-4.5-1.9-9.8-.9-13.3 2.6-12.3 12.3-22 30-27.3 50.5-.9 3.6-.1 7.9 2.2 10.9s5.8 5.1 9.6 5.1zm572.1-210h-25.5c0 .5.6 1 .6 1.5v516.5l67.3 133.9c4.9 9.6.9 21.3-8.7 26.1-2.8 1.4-5.9 2.1-8.8 2.1-7.2 0-14-3.9-17.5-10.7l-52.2-103.6-52.2 103.6c-3.4 6.8-10.3 10.7-17.4 10.7-2.9 0-5.9-.7-8.8-2.1-9.6-4.9-13.9-16.5-9-26.1l67.1-134v-516.4c0-.5 1-1 1-1.5h-238.7c0 3.1-.6 6.3-2.2 9.2l-25.8 47.5c-6.9 12.8-10.8 27.3-10.8 41.8v291.5c0 16-2.7 31.8-8.4 46.5 10.4 7.6 18.5 16.9 23.6 27.6 15.7 33 13.8 74.8-5.3 111.8-15.9 30.9-58.2 85.5-162.5 103.8-1.2.2-2.3.3-3.4.3-9.2 0-17.5-6.7-19.1-16.1-1.8-10.6 5.2-20.7 15.8-22.5 87.7-15.4 122-58.8 134.7-83.3 13.5-26.2 15.3-55 4.8-77.1-1.7-3.6-4.3-6.9-7.7-9.9-3.6 4.6-7.5 9-11.7 13.1-61.5 59.8-175.6 164.2-248 191.5-2.2.9-4.6 1.3-6.8 1.3-.2 0-.5 0-.7-.1 9.7 14 25.9 23.2 44.2 23.2h592.2c29.8 0 53.9-24.1 53.9-53.9v-592.3c-.1-29.8-24.2-53.9-54-53.9zm27.7 526.1c0 10.8-8.5 19.5-19.3 19.5s-19.3-8.7-19.3-19.5v-484.2c0-10.7 8.5-19.5 19.3-19.5s19.3 8.7 19.3 19.5zm-145.3-484.2c0-10.7 8.5-19.5 19.3-19.5s19.3 8.7 19.3 19.5v484.2c0 10.8-8.5 19.5-19.3 19.5-10.7 0-19.3-8.7-19.3-19.5zm-24.5 111c0 23-17.1 42.8-39.8 46-8.1 1.2-14.4 2-19.7 2.7v29.1c5.3.5 9.2 1.3 13.6 2.2l22.2 4.9c13.8 2.9 23.7 15.4 23.7 29.5v389.5c0 10.7-8.5 19.5-19.3 19.5-10.7 0-19.3-8.8-19.3-19.5v-382.5l-15.8-3.3c-1.6-.3-3.4-.7-5.2-1v406.6c0 10.8-8.5 19.5-19.3 19.5s-19.3-8.7-19.3-19.5v-406.5c-1.8.3-3.1.6-4.8 1l-15.2 3.2c-.4.1-1 .5-1 .9v352.6c0 10.7-8.5 19.5-19.3 19.5-10.7 0-19.3-8.8-19.3-19.5v-352.7c0-18.6 13.4-35 31.6-38.9l14.8-3.2c4.4-.9 9.5-1.6 13-2.2v-29.2c-5.3-.7-13.1-1.6-22.8-3.1-20.9-3.1-36.7-21.3-36.7-42.5v-51c0-10.8 8.5-19.5 19.3-19.5s19.3 8.7 19.3 19.5v50.9c0 2 1.7 3.7 3.6 4 6.9 1 13.9 1.8 17.4 2.4v-110c0-.6-.1-1.6-.7-1.6h-38.9c-10.7 0-19.5-8.5-19.5-19.3s8.7-19.3 19.5-19.3h38.9c22 0 39.2 18 39.2 40.1v110c5.3-.5 8.8-1.1 14.3-2 3.7-.5 6.7-3.7 6.7-7.5v-111.2c0-10.8 8.5-19.5 19.3-19.5 10.7 0 19.3 8.7 19.3 19.5v111.4z"/></svg>