<svg viewBox="0 0 700 700" xmlns="http://www.w3.org/2000/svg"><path d="m626.4 448.9.5-1.6c5.9-4.2 11-9.7 14.8-16.3 15.1-26.2 4.5-60.6-23.7-76.8-5.8-3.3-11.9-5.7-18-7 4.6-18.5-5.3-39.8-25-51.2-23.3-13.4-51.5-8-63.1 12-.6 1.1-1.2 2.3-1.7 3.4-2.5-2.1-5.3-4-8.2-5.7-30.4-17.5-71.5-4.8-98.2 28.1l-.8 1c1.4 4.8 2.1 9.9 2.1 15.1 0 3.3-.3 6.5-.8 9.6 62.4-79.7 185.9-13.4 185.9-13.4s-131.1-60.6-186.2 29.8l29.4 17.6c53.8-80.5 170.7-6.1 170.7-6.1s-113.8-62.4-163 10.6l26.6 15.9c11.8-14.5 26.9-23.1 45-25.5 49.4-6.5 103.2 40.2 103.2 40.2s-56.3-37.3-102-31.3c-15.3 2-28.1 9.2-38.3 21.2l16.3 9.7c.2-.1.3-.2.5-.2 44-11.8 123 41.6 123 41.6s-69.8-38-111.9-34.5l113 67.6-115.7-63.7c17.8 38.5 86.2 80 86.2 80s-86-41.5-97.8-85.5c-.1-.3 0-.6-.1-.9l-16.5-9.1c-5.4 14.9-5.2 29.7.8 44 17.7 42.5 78.3 72.5 78.3 72.5s-67.4-23.1-86.6-69c-7-16.9-7.1-34.3-.5-51.9l-27.1-14.9c-38.4 79.5 72.5 146.5 72.5 146.5s-122.8-63.6-80.4-150.7l-30.1-16.6c-50.6 93 67.9 175.9 67.9 175.9s-119.5-73.5-81.8-167.5c-6.1 5.2-13.4 9.1-21.4 11.2l-.7.8c-15 39.7-5.4 81.5 25 99 2.9 1.7 5.9 3.1 9 4.2-.8 1-1.5 2.1-2.1 3.2-11.5 20.1-2 47.2 21.2 60.6 19.8 11.4 43.2 9.2 56.8-4 4.2 4.7 9.3 8.8 15.1 12.1 28.2 16.2 63.2 8.1 78.3-18.1 3.8-6.6 6-13.7 6.6-20.9l1.2-1.3c23.7 8 50.4-1.3 63.1-23.4 12.9-22.1 7.5-49.8-11.3-66.3zm-290.5-45.7c-8-2.1-15.3-6-21.4-11.2 37.7 94-81.8 167.5-81.8 167.5s118.6-83 67.9-175.9l-30.1 16.6c42.5 87.1-80.4 150.7-80.4 150.7s110.9-67 72.6-146.4l-27.1 14.9c6.7 17.5 6.6 35-.5 51.9-19.2 46-86.6 69-86.6 69s60.6-30 78.3-72.5c6-14.3 6.1-29.1.8-44l-16.5 9.1c0 .3 0 .6-.1.9-11.9 44-97.8 85.4-97.8 85.4s68.4-41.6 86.2-79.9l-115.8 63.7 113-67.6c-42.1-3.6-111.9 34.5-111.9 34.5s79-53.5 123-41.6c.2 0 .3.2.5.2l16.3-9.8c-10.2-12-23-19.2-38.3-21.2-45.7-6-102 31.3-102 31.3s53.8-46.7 103.2-40.2c18.1 2.4 33.2 11 44.9 25.5l26.7-16.1c-49.2-73-163-10.7-163-10.7s116.9-74.4 170.7 6.1l29.4-17.6c-55-90.4-186.1-29.7-186.1-29.7s123.4-66.3 185.9 13.4c-.5-3.1-.8-6.3-.8-9.6 0-5.2.7-10.3 2.1-15.1l-.8-1c-26.7-32.9-67.8-45.6-98.2-28.1-2.9 1.7-5.7 3.6-8.2 5.7-.5-1.2-1.1-2.3-1.7-3.4-11.5-20.1-39.8-25.4-63.1-12-19.8 11.4-29.6 32.7-25 51.2-6.2 1.3-12.2 3.6-18.1 7-28.2 16.2-38.7 50.6-23.7 76.8 3.8 6.6 8.9 12.1 14.8 16.3l.5 1.7h.1c-18.8 16.5-24.2 44.2-11.5 66.3s39.4 31.4 63.1 23.4l1.2 1.3c.7 7.2 2.8 14.3 6.6 20.9 15.1 26.2 50.2 34.4 78.3 18.1 5.8-3.3 10.9-7.5 15.1-12.1 13.6 13.2 37 15.4 56.8 4 23.3-13.4 32.8-40.5 21.2-60.6-.6-1.1-1.3-2.2-2.1-3.2 3.1-1.1 6.1-2.6 9-4.2 30.4-17.5 40.1-59.4 25-99zm-102.9-172.5c1.3 0 2.6-.1 3.8-.2-.6 3.3-.8 6.6-.8 9.9 0 35.1 31.5 64.3 73.3 71.1l1 .4c5.8-6.1 13.1-10.7 21.2-13.6-100.4-14.2-104.5-154.4-104.5-154.4s12.7 143.9 118.6 146.5l.6-34.2c-96.6-6.5-90.4-144.9-90.4-144.9s2.7 129.7 90.6 135.9l.5-31c-18.4-3-33.4-11.8-44.5-26.2-30.3-39.5-16.7-109.5-16.7-109.5s-4.2 67.4 23.8 104c9.4 12.3 22 19.8 37.5 22.6l.3-19c-.1-.1-.3-.2-.5-.3-32.2-32.2-25.3-127.4-25.3-127.4s1.9 79.4 26 114.1l2.2-131.7 2.5 132c24.3-34.5 26.2-114.5 26.2-114.5s6.9 95.2-25.3 127.4c-.2.2-.5.3-.7.5l.4 18.8c15.6-2.8 28.3-10.3 37.7-22.6 28-36.5 23.8-104 23.8-104s13.6 69.9-16.7 109.5c-11.1 14.5-26.2 23.3-44.7 26.3l.6 31c88-6.3 90.7-135.9 90.7-135.9s6.2 138.2-90.5 144.9l.6 34.3c105.8-2.5 118.6-146.5 118.6-146.5s-3.9 140.1-104.2 154.3c7.9 2.8 15.1 7.4 20.8 13.3l.7-.1c41.8-6.8 73.3-36 73.3-71.1 0-3.4-.3-6.7-.9-9.9 1.3.1 2.5.2 3.9.2 23.1 0 41.9-21.8 41.9-48.6 0-22.8-13.6-42-31.9-47.2l-.1-.1c1.9-6 3-12.4 3-19.1 0-32.5-24.5-58.8-54.8-58.8-7.6 0-14.9 1.7-21.5 4.7l-1.7-.4c-4.9-24.6-26.2-43-51.8-43-25.5 0-46.8 18.5-51.8 43l-1.7.4c-6.6-3-13.8-4.7-21.5-4.7-30.3 0-54.8 26.4-54.8 58.8 0 6.7 1 13.1 3 19.1-18.3 5.2-31.8 24.4-31.8 47.2.1 26.9 18.8 48.7 42 48.7zm160.8 119.3c0-24.2-19.6-43.8-43.8-43.8s-43.8 19.6-43.8 43.8 19.6 43.8 43.8 43.8 43.8-19.6 43.8-43.8zm-43.8-350c-193.3 0-350 156.7-350 350s156.7 350 350 350 350-156.7 350-350-156.7-350-350-350zm0 685.1c-185.1 0-335.1-150-335.1-335.1s150-335.1 335.1-335.1 335.1 150 335.1 335.1-150 335.1-335.1 335.1z"/></svg>